<svg xmlns="http://www.w3.org/2000/svg" enable-background="new 0 0 48 48" viewBox="0 0 48 48"><path d="M44.45,19.27c-0.18-0.54-0.65-0.94-1.21-1.02l-12.36-1.8l-5.53-11.2C25.09,4.73,24.57,4.41,24,4.41s-1.09,0.32-1.35,0.84
		l-5.53,11.2l-12.36,1.8c-0.56,0.08-1.03,0.48-1.21,1.02c-0.18,0.54-0.03,1.14,0.38,1.54l8.95,8.72l-2.11,12.31
		c-0.1,0.56,0.13,1.13,0.6,1.47c0.46,0.33,1.07,0.38,1.58,0.11L24,37.6l11.06,5.81c0.22,0.12,0.46,0.17,0.7,0.17
		c0.31,0,0.62-0.1,0.88-0.29c0.46-0.34,0.69-0.9,0.6-1.47l-2.11-12.31l8.95-8.72C44.48,20.41,44.62,19.81,44.45,19.27z M32.46,27.93
		c-0.35,0.34-0.52,0.84-0.43,1.33l1.73,10.09l-9.07-4.77c-0.22-0.11-0.46-0.17-0.7-0.17s-0.48,0.06-0.7,0.17l-9.07,4.77l1.73-10.09
		c0.08-0.49-0.08-0.98-0.43-1.33L8.2,20.78l10.14-1.47c0.49-0.07,0.91-0.38,1.13-0.82L24,9.3l4.53,9.19
		c0.22,0.44,0.64,0.75,1.13,0.82l10.14,1.47L32.46,27.93z"/></svg>